<?xml version="1.0" encoding="UTF-8"?> <svg xmlns="http://www.w3.org/2000/svg" width="219.657" height="50" viewBox="0 0 219.657 50"><defs><style>.a{fill:#0e75bd;}</style></defs><g transform="translate(-54.863 -487.863)"><g transform="translate(112.874 503.437)"><g transform="translate(0)"><path d="M243.878,538.4c4.075,0,6.56,1.9,6.56,5.4,0,3.672-2.728,5.365-5.911,5.71a3.819,3.819,0,0,1-1.346-.051l-1.888-.5v3.09c0,2.453.221,2.678,2.718,2.828v1.27h-9v-1.27c2.109-.2,2.43-.375,2.43-2.777v-9.4c0-2.664-.276-2.839-2.43-3.026V538.4Zm-2.585,9.187a5.145,5.145,0,0,0,1.722.324c1.42,0,3.389-.752,3.389-4.176,0-2.755-1.425-4-3.428-4-1.387,0-1.683.349-1.683,1.624Z" transform="translate(-235.015 -537.699)"></path><path d="M296.128,556.144v-1.27c2.086-.163,2.317-.412,2.317-3.04v-4.242h-7.035v4.242c0,2.616.129,2.828,2.318,3.04v1.27h-8.6v-1.27c2.234-.214,2.407-.4,2.407-3.04v-9.151c0-2.641-.207-2.828-2.407-3.015V538.4h8.6v1.27c-2.086.15-2.318.337-2.318,2.991v3.278h7.035v-3.278c0-2.616-.266-2.89-2.352-2.991V538.4h8.631v1.281c-2.176.177-2.407.364-2.407,2.98v9.175c0,2.627.129,2.864,2.407,3.04v1.27Z" transform="translate(-268.994 -537.699)"></path><path d="M358.78,555.066v-1.2l.692-.075c1.239-.15,1.346-.5.851-1.776l-.911-2.271h-5.678l-.749,2.267c-.347,1.23-.126,1.53,1.094,1.718l.873.137v1.2h-6.677v-1.2c1.693-.225,2.241-.474,3.164-2.858l5.661-13.98,1.394-.223,5.8,14.706c.7,1.858,1.218,2.154,2.877,2.355v1.2Zm-2.191-13.046-2.293,6.008H358.8Z" transform="translate(-311.803 -536.622)"></path><path d="M427.313,556.369h-1.075c-3.582,0-4.6-.9-5.6-2.427a44.325,44.325,0,0,1-2.277-4.107c-.487-.93-.8-1.217-1.876-1.217h-.673V552c0,2.49.311,2.627,2.51,2.878v1.27h-8.742v-1.27c2.188-.251,2.429-.412,2.429-2.854v-9.487c0-2.518-.312-2.7-2.429-2.865V538.4H418.6a7.763,7.763,0,0,1,4.41.977,4.006,4.006,0,0,1,1.86,3.585,4.832,4.832,0,0,1-3.459,4.638c.449.885,1.563,2.745,2.367,4.032a16.949,16.949,0,0,0,1.943,2.588,3.73,3.73,0,0,0,1.744.932Zm-10.392-9.135a4.291,4.291,0,0,0,2.609-.649,3.414,3.414,0,0,0,1.166-2.942c0-2.714-1.466-3.874-3.356-3.874-1.148,0-1.524.313-1.524,1.328v6.138Z" transform="translate(-353.372 -537.699)"></path><path d="M489.85,539.668c-2.476.187-2.616.437-2.581,2.9l.1,9.512c.059,2.442.311,2.567,2.6,2.792v1.27h-8.846v-1.27c2.255-.176,2.43-.35,2.442-2.817l.1-10.7c-1.98,4.813-4.36,10.86-5.849,14.79h-1.235c-1.354-3.946-3.582-9.7-5.368-14.471-.161,4.8-.323,10.239-.254,11.338.057,1.35.652,1.712,2.486,1.864v1.27H466.6v-1.27c1.737-.163,2.267-.564,2.462-1.862.185-1.266.552-6.106.725-11.225.047-1.384-.105-1.918-2.488-2.119V538.4h6.442l4.8,11.616L483.4,538.4h6.453Z" transform="translate(-392.026 -537.699)"></path><path d="M551.709,555.066v-1.2l.692-.075c1.239-.15,1.346-.5.85-1.776l-.911-2.271h-5.678l-.749,2.267c-.347,1.23-.126,1.53,1.094,1.718l.873.137v1.2H541.2v-1.2c1.693-.225,2.241-.474,3.164-2.858l5.661-13.98,1.394-.223,5.8,14.706c.7,1.858,1.218,2.154,2.876,2.355v1.2Zm-2.191-13.046-2.293,6.008h4.508Z" transform="translate(-442.607 -536.622)"></path><path class="a" d="M611.248,542.061a7.857,7.857,0,0,0-1.16-2.811c-.414-.527-.854-.8-2.409-.8H606.3v11.865c0,2.7.195,2.8,2.7,3.09v1.27h-9.222V553.4c2.371-.311,2.624-.426,2.624-3.077V538.447h-.949c-1.882,0-2.329.274-2.778.876a9.183,9.183,0,0,0-1.148,2.738h-1.18c.1-1.067.3-4.411.333-5.834h.839c.4.6.69.7,1.525.7h10.839a1.36,1.36,0,0,0,1.388-.7h.827c.034,1.333.2,4.208.333,5.759Z" transform="translate(-480 -536.227)"></path><path class="a" d="M650.542,556.144v-1.27c2.131-.2,2.429-.35,2.429-2.892v-9.41c0-2.554-.286-2.742-2.429-2.9V538.4h8.72v1.27c-2.177.187-2.419.351-2.419,2.929v9.385c0,2.528.209,2.691,2.419,2.892v1.27Z" transform="translate(-516.738 -537.699)"></path><path class="a" d="M689.44,556.144V554.85l.844-.163c.8-.15.954-.563.336-1.583l-2.415-4.018c-1.006,1.547-1.846,2.863-2.5,4.079-.505.936-.376,1.324.462,1.5l1.094.187v1.294h-7.093V554.85c1.989-.3,2.612-.5,3.94-2.307,1.006-1.346,2.178-3.06,3.273-4.767l-3.731-6.164c-.883-1.484-1.416-1.72-3.228-1.945V538.4h8.506v1.27l-.912.15c-.642.123-.678.525-.252,1.211l2.184,3.677c.865-1.316,1.694-2.545,2.191-3.475.552-.951.29-1.288-.4-1.414l-.863-.15V538.4h6.779v1.27a4.828,4.828,0,0,0-4.053,2.158c-.738.992-1.606,2.277-2.859,4.128l3.984,6.441a4.12,4.12,0,0,0,3.746,2.455v1.294Z" transform="translate(-536.821 -537.699)"></path></g></g><g transform="translate(54.863 487.863)"><path d="M104.737,522.429a2.807,2.807,0,0,0-2.064,1.421,1.981,1.981,0,0,1-1.442.991c-.935.084-2.4.194-3.484.26a1.9,1.9,0,0,1-1.7-.779,2.913,2.913,0,0,0-2.517-1.226,3.333,3.333,0,0,0-.777.118,1.66,1.66,0,0,1-1.62-.442c-1.652-1.665-3.383-3.406-5.143-5.171a2.057,2.057,0,0,1,.014-2.914c1.682-1.656,3.338-3.292,4.925-4.864a2.206,2.206,0,0,1,2.034-.546,3.272,3.272,0,0,0,.576.069,2.917,2.917,0,0,0,2.711-1.542,1.529,1.529,0,0,1,1.456-.841c1.257.079,2.46.168,3.594.269a1.4,1.4,0,0,1,1.118.842,3.043,3.043,0,0,0,2.239,1.9c1.239.117,2.09-1.08,2.093-2.646.006-1.662-.965-3.223-2.334-3.441a1.887,1.887,0,0,0-1.873.835,1.733,1.733,0,0,1-1.636.739c-.993-.1-2.034-.186-3.114-.265a3.046,3.046,0,0,1-2.039-1.116,3.611,3.611,0,0,0-1.414-1.016c-.106-1.691-.234-3.306-.385-4.813a1.415,1.415,0,0,1,.678-1.361,1.93,1.93,0,0,0,.9-2.031,3.359,3.359,0,0,0-3.259-2.308c-1.674-.066-2.938.79-2.82,2.113A3.063,3.063,0,0,0,91.3,496.92a1.57,1.57,0,0,1,.919,1.234c.092,1.048.176,2.15.249,3.3a1.871,1.871,0,0,1-.906,1.771,2.936,2.936,0,0,0-1.455,2.677,3.325,3.325,0,0,0,.042.433,2.6,2.6,0,0,1-.754,2.288c-1.616,1.576-3.3,3.22-5,4.886a1.787,1.787,0,0,1-2.51-.012c-1.6-1.6-3.189-3.178-4.72-4.7a3.131,3.131,0,0,1-.853-2.62c.011-.1.018-.191.021-.287a2.952,2.952,0,0,0-1.289-2.571,2.178,2.178,0,0,1-.974-1.923c.044-.964.1-1.9.154-2.791A2.5,2.5,0,0,1,75.5,496.7a2.874,2.874,0,0,0,1.455-2.041c.109-1.255-1.094-2.118-2.661-2.118-1.669,0-3.229.992-3.444,2.378a1.925,1.925,0,0,0,.866,1.912,1.789,1.789,0,0,1,.779,1.661c-.077.977-.145,2-.2,3.056a2.691,2.691,0,0,1-1.053,1.967,3.647,3.647,0,0,0-.76.776,2.766,2.766,0,0,1-1.976,1.128c-.9.075-2.012.181-2.854.272a1.756,1.756,0,0,1-1.74-.862,1.943,1.943,0,0,0-1.986-.983c-1.314.2-2.315,1.691-2.375,3.272-.064,1.674.79,2.945,2.111,2.834a2.83,2.83,0,0,0,1.983-1.36,2.412,2.412,0,0,1,1.747-1.128c1.01-.1,2.072-.188,3.174-.27a1.873,1.873,0,0,1,1.734.818,2.954,2.954,0,0,0,2.6,1.326,3.362,3.362,0,0,0,.514-.055,2.5,2.5,0,0,1,2.23.724c1.663,1.676,3.4,3.42,5.156,5.18a1.321,1.321,0,0,1-.008,1.874c-1.876,1.844-3.727,3.67-5.493,5.416a2.492,2.492,0,0,1-2.087.658q-.149-.019-.3-.023a2.945,2.945,0,0,0-2.5,1.189,2.042,2.042,0,0,1-1.793.823c-1.206-.073-2.364-.157-3.461-.251a2,2,0,0,1-1.461-.991,2.837,2.837,0,0,0-2.094-1.422c-1.219-.061-2.043,1.122-2.042,2.652,0,1.668,1,3.23,2.39,3.447a1.975,1.975,0,0,0,2.11-1.2,1.235,1.235,0,0,1,1.267-.733c1.073.1,2.2.2,3.374.279a2.329,2.329,0,0,1,1.713,1.093,3.654,3.654,0,0,0,.841.9,2.3,2.3,0,0,1,.933,1.629c.086,1.207.183,2.367.292,3.466A1.551,1.551,0,0,1,71.8,535.5a1.9,1.9,0,0,0-.9,2,3.334,3.334,0,0,0,3.256,2.253c1.67.059,2.933-.778,2.819-2.078a2.936,2.936,0,0,0-1.66-2.132,1.942,1.942,0,0,1-1.1-1.471c-.09-1.037-.171-2.129-.243-3.266a1.714,1.714,0,0,1,.919-1.6,2.92,2.92,0,0,0,1.458-2.664,3.3,3.3,0,0,0-.107-.74,2.21,2.21,0,0,1,.606-2.148c1.545-1.5,3.149-3.069,4.772-4.658a2.138,2.138,0,0,1,3,.013c1.655,1.651,3.288,3.275,4.858,4.833a2.343,2.343,0,0,1,.687,2.124,3.3,3.3,0,0,0-.067.565,2.914,2.914,0,0,0,1.227,2.517,1.748,1.748,0,0,1,.788,1.544c-.075,1.213-.16,2.377-.256,3.477a2.144,2.144,0,0,1-1.014,1.608,2.8,2.8,0,0,0-1.412,2.058c-.063,1.2,1.112,2.006,2.637,2.01,1.662.005,3.225-.972,3.445-2.346a1.932,1.932,0,0,0-1.114-2.049,1.366,1.366,0,0,1-.8-1.378c.1-1.057.2-2.17.282-3.326a2.168,2.168,0,0,1,1.048-1.608,3.646,3.646,0,0,0,1.11-1.11,2.324,2.324,0,0,1,1.755-1.058c.924-.066,2.115-.166,2.985-.252a1.565,1.565,0,0,1,1.591.814,1.927,1.927,0,0,0,2.03,1.078c1.374-.22,2.351-1.784,2.346-3.445C106.744,523.541,105.936,522.366,104.737,522.429Z" transform="translate(-58.034 -491.033)"></path><g transform="translate(6.152 5.618)"><path class="a" d="M178.668,505.325a2.2,2.2,0,0,0-2.579,2.476,3.819,3.819,0,0,0,3.187,3.211,2.2,2.2,0,0,0,2.459-2.588A3.5,3.5,0,0,0,178.668,505.325Z" transform="translate(-143.194 -505.311)"></path><path class="a" d="M176.5,605.122a3.785,3.785,0,0,0-3.227,3.249,2.287,2.287,0,0,0,2.651,2.548,3.535,3.535,0,0,0,3.106-3.136A2.286,2.286,0,0,0,176.5,605.122Z" transform="translate(-141.285 -572.973)"></path><path class="a" d="M77.281,605.217a2.3,2.3,0,0,0-2.553,2.669,3.542,3.542,0,0,0,3.128,3.128,2.3,2.3,0,0,0,2.669-2.553A3.78,3.78,0,0,0,77.281,605.217Z" transform="translate(-74.475 -573.038)"></path><path class="a" d="M76.505,511.684a3.8,3.8,0,0,0,3.237-3.213,2.257,2.257,0,0,0-2.635-2.506,3.524,3.524,0,0,0-3.124,3.093A2.258,2.258,0,0,0,76.505,511.684Z" transform="translate(-73.969 -505.745)"></path></g><path class="a" d="M56.806,560.98a2.005,2.005,0,0,0,1.757-1.085,2.409,2.409,0,0,1,2.047-1.382c1.3-.022,2.707-.047,4.2-.075a2.787,2.787,0,0,1,2.353,1.42,3.743,3.743,0,0,0,3.231,1.884,3.939,3.939,0,0,0-.071-7.875,3.719,3.719,0,0,0-3.041,1.686,2.685,2.685,0,0,1-2.168,1.289c-1.666-.047-3.23-.09-4.653-.128a2.624,2.624,0,0,1-2.076-1.283,1.907,1.907,0,0,0-1.6-.847c-1.221.094-1.954,1.575-1.928,3.277C54.886,559.471,55.64,560.893,56.806,560.98Z" transform="translate(-54.863 -532.613)"></path><path class="a" d="M127.98,600.522a2.007,2.007,0,0,0-1.085-1.757,2.409,2.409,0,0,1-1.382-2.047c-.022-1.3-.047-2.707-.075-4.2a2.788,2.788,0,0,1,1.42-2.353,3.742,3.742,0,0,0,1.884-3.231,3.939,3.939,0,0,0-7.875.071,3.719,3.719,0,0,0,1.686,3.041,2.685,2.685,0,0,1,1.289,2.168c-.047,1.666-.09,3.23-.128,4.654a2.624,2.624,0,0,1-1.283,2.076,1.907,1.907,0,0,0-.847,1.6c.094,1.221,1.574,1.954,3.277,1.928C126.471,602.442,127.893,601.688,127.98,600.522Z" transform="translate(-99.613 -552.466)"></path><path class="a" d="M167.522,553.439a2.006,2.006,0,0,0-1.757,1.084,2.409,2.409,0,0,1-2.047,1.382c-1.3.022-2.707.047-4.2.075a2.787,2.787,0,0,1-2.353-1.42,3.743,3.743,0,0,0-3.231-1.884,3.939,3.939,0,0,0,.071,7.875,3.718,3.718,0,0,0,3.041-1.686,2.685,2.685,0,0,1,2.168-1.289c1.666.047,3.23.09,4.653.128a2.624,2.624,0,0,1,2.076,1.283,1.907,1.907,0,0,0,1.6.847c1.221-.094,1.953-1.575,1.928-3.277C169.442,554.948,168.689,553.526,167.522,553.439Z" transform="translate(-119.466 -531.805)"></path><path class="a" d="M120.439,489.806a2.006,2.006,0,0,0,1.085,1.757,2.411,2.411,0,0,1,1.382,2.047c.022,1.3.047,2.707.075,4.2a2.786,2.786,0,0,1-1.42,2.353,3.743,3.743,0,0,0-1.884,3.231,3.939,3.939,0,0,0,7.875-.071,3.719,3.719,0,0,0-1.686-3.041,2.686,2.686,0,0,1-1.289-2.168c.047-1.666.09-3.23.128-4.653a2.622,2.622,0,0,1,1.283-2.076,1.907,1.907,0,0,0,.847-1.6c-.094-1.221-1.575-1.954-3.277-1.928C121.947,487.886,120.526,488.64,120.439,489.806Z" transform="translate(-98.805 -487.863)"></path></g></g></svg> 